PathFileType	4	(X/Y/Z)	 s03c0202.trc
DataRate	CameraRate	NumFrames	NumMarkers	Units	OrigDataRate	OrigDataStartFrame	OrigNumFrames
200	200	5	52	mm	200	751	2000
Frame#	Time	racr			lacr			c7			jug			rlel			rdr			llel			ldr			s2			lic			ric			lasi			rasi			rpsi			lpsi			rgt			lgt			rth1			rth2			rth3			rth4			rlfc			rmfc			rsh1			rsh2			rsh3			rsh4			rlmal			rmmal			rcal			rtoe			rmt5			rmt1			lth1			lth2			lth4			lth3			llfc			lmfc			lsh1			lsh2			lsh3			lsh4			llmal			lmmal			lcal			ltoe			lmt1			lmt5			SBIKE			LBIKE			RBIKE			
		X1	Y1	Z1	X2	Y2	Z2	X3	Y3	Z3	X4	Y4	Z4	X5	Y5	Z5	X6	Y6	Z6	X7	Y7	Z7	X8	Y8	Z8	X9	Y9	Z9	X10	Y10	Z10	X11	Y11	Z11	X12	Y12	Z12	X13	Y13	Z13	X14	Y14	Z14	X15	Y15	Z15	X16	Y16	Z16	X17	Y17	Z17	X18	Y18	Z18	X19	Y19	Z19	X20	Y20	Z20	X21	Y21	Z21	X22	Y22	Z22	X23	Y23	Z23	X24	Y24	Z24	X25	Y25	Z25	X26	Y26	Z26	X27	Y27	Z27	X28	Y28	Z28	X29	Y29	Z29	X30	Y30	Z30	X31	Y31	Z31	X32	Y32	Z32	X33	Y33	Z33	X34	Y34	Z34	X35	Y35	Z35	X36	Y36	Z36	X37	Y37	Z37	X38	Y38	Z38	X39	Y39	Z39	X40	Y40	Z40	X41	Y41	Z41	X42	Y42	Z42	X43	Y43	Z43	X44	Y44	Z44	X45	Y45	Z45	X46	Y46	Z46	X47	Y47	Z47	X48	Y48	Z48	X49	Y49	Z49	X50	Y50	Z50	X51	Y51	Z51	X52	Y52	Z52	
751	3.7550	508.398833	1363.236243	-99.413320	468.475218	1415.152915	-403.606072	426.086815	1472.622303	-231.263544	425.939015	1299.064233	-260.092602	547.197463	1174.368346	102.260664	725.431070	990.817327	-15.304665	490.053578	1175.372270	-547.367978	706.835922	979.990871	-471.003378	-100.754144	1197.266163	-220.694722	52.321301	1251.829203	-418.139377	71.071515	1226.155424	-46.629894	79.015760	1175.187017	-382.484597	98.233732	1176.409110	-88.660617	-74.160872	1247.195567	-177.359099	-72.134356	1249.879184	-259.045885	39.249823	1142.329718	-34.464439	-4.895820	1106.905267	-426.215772	170.307407	1064.730473	-25.171314	259.070457	1063.624375	-29.024783	334.203182	1021.676358	-32.268677	268.084281	1096.533826	-43.764136	442.252159	949.307200	-58.672584	440.000093	929.263118	-186.741609	337.894166	822.689696	-35.364130	289.502137	750.313826	-53.657883	211.472030	708.987429	-53.305575	309.224152	732.730231	-81.073402	108.759019	628.519813	-72.311973	137.109669	625.097215	-159.190065	30.800284	618.153826	-112.157992	287.785886	442.591192	-113.619774	180.867756	496.385106	-46.684229	209.332998	492.674228	-158.896845	69.298779	958.236000	-451.677687	129.218878	896.672982	-461.536352	161.295479	915.379871	-464.865289	155.231293	812.104246	-447.449214	239.008084	712.676667	-436.342394	256.972451	701.836084	-317.118976	206.075575	543.064504	-454.620940	223.770775	461.422465	-438.736497	196.165559	375.607306	-427.799696	259.047844	461.788027	-420.718583	183.505006	247.419361	-407.244859	220.186892	265.847528	-322.126843	128.331656	198.412426	-357.560144	436.934349	210.201935	-358.423584	344.678031	202.820992	-317.275490	319.742599	171.844668	-431.610065	-214.190109	945.975293	-227.441425	-6.090595	83.726866	-435.082648	-11.512294	81.260686	-34.673479	
752	3.7600	505.803906	1364.214033	-95.142343	471.853510	1415.278764	-400.393334	426.008923	1473.431109	-228.554086	426.343321	1299.607082	-256.338769	544.323261	1173.248188	103.998321	724.827643	991.010197	-14.260013	492.165719	1176.318200	-546.836480	708.147010	979.466399	-471.847858	-100.987304	1198.691835	-223.487840	54.899423	1252.341583	-421.241571	69.390069	1227.835071	-48.673206	80.074166	1175.744867	-384.709188	95.894660	1179.445275	-87.064659	-74.611169	1248.299910	-181.439322	-72.164097	1251.247170	-263.482639	38.523121	1145.916096	-37.348726	-4.631239	1106.787117	-428.442702	170.753336	1070.231605	-27.139163	259.454812	1070.368878	-31.392382	335.263719	1029.683030	-34.762992	268.092239	1103.309663	-46.982064	444.702015	959.376681	-60.991690	442.915735	938.455436	-189.162613	342.252773	831.544923	-37.273089	294.960668	758.306866	-55.017920	217.541911	715.943191	-54.303067	314.847770	740.829625	-82.364072	115.998361	633.282665	-72.566346	144.632627	630.449665	-160.315224	37.903345	620.979561	-113.474726	297.618721	449.661825	-113.936868	190.191297	502.001656	-46.852300	218.491859	498.394895	-159.104823	67.497480	958.355238	-454.338090	126.525540	895.566953	-463.919625	158.907555	913.739251	-467.379305	151.246903	810.619763	-449.812393	233.585542	710.061877	-438.293960	251.904084	699.055651	-318.994600	199.427155	540.705490	-455.913671	216.766309	459.026391	-440.104718	188.748813	373.409251	-428.667218	252.202378	459.153023	-422.345562	175.659866	245.300776	-407.602888	213.109607	263.040878	-323.101569	120.018446	197.766202	-357.803017	428.694653	203.173158	-358.535461	336.305833	197.655437	-317.391455	310.812692	166.908345	-431.714863	-214.189314	945.977474	-227.449187	-6.079929	83.708502	-435.111826	-11.524231	81.382844	-34.732284	
753	3.7650	503.062791	1365.239282	-90.901388	475.213210	1415.253535	-397.095675	425.915274	1474.302717	-225.950656	427.458683	1300.211519	-252.795581	541.393365	1172.007194	105.981439	724.218305	991.217813	-13.377133	494.381951	1177.255898	-546.500377	709.345391	979.089640	-472.940527	-100.355172	1199.347555	-228.308986	57.368120	1252.906527	-423.845248	67.979059	1229.092772	-51.296422	81.022613	1176.362613	-386.900893	93.735461	1182.266816	-85.600537	-75.106630	1249.551874	-185.390943	-72.122317	1252.251867	-267.565518	38.013131	1149.581790	-39.872407	-4.424482	1107.041323	-430.881236	171.046605	1075.533399	-29.126646	259.763575	1076.890761	-33.739846	335.980069	1037.295343	-36.820116	267.774302	1109.788736	-49.644875	446.616547	968.444049	-62.215898	445.535451	947.238666	-191.569986	346.437719	840.100186	-39.233313	300.307972	765.957656	-56.315826	223.474107	722.349470	-55.354218	320.360261	748.331387	-83.723185	123.412454	637.523044	-72.910022	151.592510	634.739091	-160.866103	45.497195	624.152995	-112.630979	307.714522	456.322001	-114.343755	199.593137	507.073200	-47.013570	227.771921	503.941825	-159.109650	65.929578	958.424171	-456.650749	124.065267	894.736763	-466.420193	156.682861	912.527341	-469.918919	147.599476	809.597611	-452.296357	228.671921	707.986323	-440.359635	247.364091	696.833342	-320.961407	192.943242	538.914202	-457.329782	209.835158	457.149978	-441.547478	181.259951	371.718655	-429.531220	245.452920	456.948434	-423.990876	167.569821	243.765626	-407.979774	205.924573	260.899221	-324.046794	111.515906	197.740940	-358.009245	420.122210	196.825661	-358.678240	327.747609	193.116049	-317.522493	301.579493	162.664021	-431.851029	-214.188518	945.979654	-227.456950	-6.068383	83.733857	-435.176766	-11.519107	81.494669	-34.825257	
754	3.7700	500.227381	1366.317273	-86.782155	478.512406	1415.125015	-393.779500	425.770303	1475.099272	-223.388533	428.227178	1300.749623	-249.281384	538.017114	1170.251379	108.330109	723.587207	991.454445	-12.522755	496.708897	1178.326871	-546.368219	710.663648	978.727938	-473.970423	-99.965855	1200.117511	-232.976761	59.749090	1253.691504	-426.410904	66.592645	1230.591776	-53.170558	81.784718	1177.011776	-388.699719	91.751042	1184.879682	-84.263455	-75.659013	1251.011174	-189.077204	-72.061105	1253.266741	-271.001033	37.486717	1153.437788	-42.291833	-4.149152	1107.467983	-433.200442	171.111439	1080.866149	-31.150526	259.935355	1083.299157	-35.799871	336.654749	1044.443093	-38.955686	267.319991	1116.119243	-52.347061	448.379793	977.397187	-64.554619	447.690872	955.496122	-194.088589	350.449825	848.146096	-41.241474	305.811203	773.087868	-57.362291	229.440780	728.344419	-56.386100	326.074102	756.003003	-84.354901	131.007780	640.894668	-73.235422	158.484564	638.151428	-161.472180	53.023778	626.246068	-111.656087	318.221600	462.419377	-114.908360	209.165932	511.457948	-47.115372	237.198324	508.659107	-159.439170	64.599515	958.739178	-458.909152	121.896883	894.305030	-468.936702	154.706294	911.792612	-472.537120	144.358070	808.891950	-454.944138	224.334948	706.305038	-442.622032	243.349971	695.342412	-323.057678	186.822962	537.709810	-458.910058	203.051675	455.769517	-443.012865	173.786308	370.739452	-430.435147	238.828948	455.319365	-425.755160	159.241630	242.945856	-408.340370	198.661373	259.438725	-324.955698	102.851023	198.328654	-358.169946	411.354804	190.945172	-358.807508	318.885453	189.325873	-317.814290	292.033835	159.048023	-431.982620	-214.187723	945.981835	-227.464712	-6.069674	83.739815	-435.235431	-11.246807	81.306469	-34.993901	
755	3.7750	497.405561	1367.390485	-82.775350	481.677089	1414.892548	-390.385714	425.616660	1475.880004	-220.941944	428.569075	1301.266448	-245.673140	534.986906	1169.135832	109.707462	722.952065	991.797684	-11.751091	499.211061	1179.467093	-546.379346	712.081809	978.576665	-474.776031	-100.011655	1201.660107	-236.646426	62.064941	1254.687336	-428.908688	65.195097	1232.076629	-55.114571	82.669316	1177.836672	-390.700653	89.936313	1187.289817	-83.048618	-76.155174	1252.457833	-192.530688	-71.847689	1254.381398	-274.671250	36.894922	1157.373740	-44.784105	-3.820902	1108.080934	-435.408360	171.091663	1086.164038	-33.134277	259.981657	1089.383540	-38.134125	337.230319	1051.272480	-41.059664	266.885601	1122.140286	-55.085390	449.850905	985.793419	-66.999474	450.268973	963.779178	-198.677744	354.117293	855.806966	-43.257038	310.853980	779.833077	-58.708582	235.307075	733.634948	-57.474958	331.549728	762.737614	-85.271532	138.683015	643.468713	-73.671500	166.275790	641.491404	-161.761024	61.007269	627.152635	-113.010461	328.268415	467.802379	-115.189848	218.890519	515.155198	-47.323952	246.799719	512.741786	-159.496831	63.508094	959.336803	-461.120882	120.068739	894.255160	-471.500836	153.090554	911.349308	-475.080040	141.653052	808.573134	-457.609041	220.622721	705.130619	-444.969540	239.993322	694.314007	-325.251254	181.110112	537.043580	-460.550644	196.552470	455.027584	-444.508015	166.436591	370.340299	-431.384736	232.411489	454.214169	-427.550916	150.870084	242.672096	-408.638887	191.349586	258.675557	-325.821458	94.060739	199.595723	-358.281957	402.101534	185.806238	-359.053712	309.824385	186.009167	-317.927835	282.320427	156.058597	-432.004779	-214.186927	945.984015	-227.472475	-6.071662	83.750532	-435.268124	-11.238014	81.391653	-35.037060	
